<svg width="21" height="21" viewBox="0 0 21 21" fill="none" xmlns="http://www.w3.org/2000/svg">
<path d="M14.9338 12.3485C14.9338 12.4199 14.8981 12.5003 14.8445 12.5538L14.3981 13.0003C14.3445 13.0538 14.2641 13.0895 14.1927 13.0895C14.1213 13.0895 14.0409 13.0538 13.9874 13.0003L10.4784 9.49132L6.9695 13.0003C6.91593 13.0538 6.83557 13.0895 6.76414 13.0895C6.68379 13.0895 6.61236 13.0538 6.55879 13.0003L6.11236 12.5538C6.05879 12.5003 6.02307 12.4199 6.02307 12.3485C6.02307 12.277 6.05879 12.1967 6.11236 12.1431L10.2731 7.9824C10.3266 7.92882 10.407 7.89311 10.4784 7.89311C10.5499 7.89311 10.6302 7.92882 10.6838 7.9824L14.8445 12.1431C14.8981 12.1967 14.9338 12.277 14.9338 12.3485Z" fill="white"/>
</svg>
